<?xml version="1.0" standalone="no"?>
<!DOCTYPE svg PUBLIC "-//W3C//DTD SVG 20010904//EN"
 "http://www.w3.org/TR/2001/REC-SVG-20010904/DTD/svg10.dtd">
<svg version="1.0" xmlns="http://www.w3.org/2000/svg"
 width="400.000000pt" height="400.000000pt" viewBox="0 0 400.000000 400.000000"
 preserveAspectRatio="xMidYMid meet">
<metadata>
Created by potrace 1.11, written by Peter Selinger 2001-2013
</metadata>
<g transform="translate(0.000000,400.000000) scale(0.100000,-0.100000)"
fill="#000000" stroke="none">
<path d="M2755 3936 c-104 -36 -164 -74 -244 -157 -207 -213 -369 -637 -436
-1139 -12 -94 -15 -116 -17 -157 -2 -48 15 -42 -223 -87 -189 -36 -208 -39
-202 -24 257 612 294 892 154 1178 -54 109 -142 204 -229 248 -72 37 -91 42
-170 47 -207 12 -400 -146 -522 -430 -21 -50 -45 -104 -52 -122 -8 -17 -14
-36 -14 -42 0 -6 -7 -31 -15 -55 -20 -58 -72 -313 -80 -391 -4 -33 -8 -70 -10
-83 -9 -58 -19 -263 -19 -414 l0 -167 -55 -19 c-31 -11 -83 -28 -116 -37 -248
-69 -447 -165 -469 -226 -12 -34 22 -111 60 -135 28 -19 92 -24 144 -12 117
27 231 50 269 54 25 3 57 7 71 9 111 16 130 17 130 3 1 -32 42 -266 65 -374
15 -69 60 -230 91 -327 116 -360 270 -656 426 -817 79 -82 120 -113 206 -153
57 -27 80 -32 154 -34 172 -4 289 61 599 333 72 63 134 114 138 114 5 0 24
-24 43 -52 155 -232 363 -319 593 -249 51 15 179 72 196 87 8 8 19 14 24 14 7
0 285 165 567 337 29 18 57 34 61 35 4 2 21 42 37 90 68 201 78 447 21 477
-26 14 -52 -4 -155 -103 -92 -89 -264 -224 -376 -294 -95 -60 -308 -167 -358
-179 -24 -6 -71 -10 -106 -8 -189 9 -280 143 -311 460 -3 33 -7 80 -10 105 -2
25 -7 81 -10 125 -4 44 -8 98 -10 120 -2 22 -7 88 -10 147 l-5 107 111 166
111 165 51 1 c29 1 75 2 102 4 78 4 392 15 584 20 169 4 174 5 208 31 19 15
41 42 49 60 28 67 12 187 -31 230 -19 19 -97 24 -462 25 -150 1 -273 4 -273 8
0 3 11 23 25 43 14 20 25 39 25 41 0 3 19 36 42 73 23 38 65 116 93 174 160
321 195 537 124 765 -55 180 -166 314 -309 375 -69 29 -214 37 -275 16z m147
-466 c4 0 18 -11 32 -25 25 -25 45 -78 47 -126 6 -107 -81 -350 -233 -653 -45
-89 -88 -176 -97 -193 -15 -33 -16 -33 -87 -33 -70 0 -73 1 -69 23 2 12 13 87
25 167 36 243 89 484 134 603 68 181 129 252 206 242 19 -2 38 -4 42 -5z
m-1495 -114 c40 -13 79 -111 77 -196 -3 -119 -61 -355 -161 -651 l-76 -226
-62 -12 c-81 -14 -84 -14 -80 7 2 9 6 103 9 207 6 194 11 286 21 365 3 25 7
59 9 75 17 137 66 313 104 369 41 62 95 83 159 62z m626 -1296 c2 -3 7 -72 11
-155 4 -82 8 -163 10 -180 2 -16 7 -59 11 -95 4 -36 9 -74 11 -85 2 -10 6 -37
10 -60 26 -180 81 -412 123 -513 l29 -72 -58 -53 c-31 -29 -79 -71 -106 -93
-27 -21 -55 -44 -61 -51 -28 -26 -151 -101 -193 -118 -63 -24 -166 -23 -217 3
-91 47 -155 155 -197 333 -22 94 -70 316 -81 379 -2 14 -9 50 -16 80 -6 30
-12 66 -14 80 -18 123 -22 104 58 271 41 85 78 165 82 178 8 27 25 34 168 67
62 15 172 41 245 58 128 30 175 37 185 26z"/>
</g>
</svg>
